# xmcd
#
# Track frame offsets: 
#        150
#        6030
#        10155
#        35251
#        54611
#        79568
#        107256
#        126763
#        150091
#        168011
#        195197
#        214401
#        241248
#        244205
#        259953
#        288546
#        311279
#        319950
#        320250
#        320550
#        320850
#        321150
#        321450
#        321750
#        322050
#        322350
#        322650
#        322950
#
# Disc length: 4597 seconds
#
# Revision: 18
# Processed by: cddbd v1.5.2PL0 Copyright (c) Steve Scherf et al.
# Submitted via: ExactAudioCopy v1.3
#
DISCID=8211f31c
DTITLE=BUMP OF CHICKEN - orbital period
DYEAR=2007
DGENRE=J-Rock
TTITLE0=voyager
TTITLE1=星の鳥
TTITLE2=メーデー
TTITLE3=才悩人応援歌
TTITLE4=プラネタリウム
TTITLE5=supernova
TTITLE6=ハンマーソングと痛みの塔
TTITLE7=時空かくれんぼ
TTITLE8=かさぶたぶたぶ
TTITLE9=花の名
TTITLE10=ひとりごと
TTITLE11=飴玉の唄
TTITLE12=星の鳥 reprise
TTITLE13=カルマ
TTITLE14=arrows
TTITLE15=涙のふるさと
TTITLE16=flyby
TTITLE17=???? 18
TTITLE18=???? 19
TTITLE19=???? 20
TTITLE20=???? 21
TTITLE21=???? 22
TTITLE22=???? 23
TTITLE23=???? 24
TTITLE24=???? 25
TTITLE25=???? 26
TTITLE26=???? 27
TTITLE27=ハテナッチセブンクエスチョンズ - BELIEVE
EXTD=YEAR: 2007
EXTT0=
EXTT1=
EXTT2=
EXTT3=
EXTT4=
EXTT5=
EXTT6=
EXTT7=
EXTT8=
EXTT9=
EXTT10=
EXTT11=
EXTT12=
EXTT13=
EXTT14=
EXTT15=
EXTT16=
EXTT17=
EXTT18=
EXTT19=
EXTT20=
EXTT21=
EXTT22=
EXTT23=
EXTT24=
EXTT25=
EXTT26=
EXTT27=
PLAYORDER=
